<?xml version="1.0" encoding="UTF-8" standalone="no"?>
<!-- Created with Inkscape (http://www.inkscape.org/) -->

<svg
   width="1000"
   height="1000"
   viewBox="0 0 264.58333 264.58333"
   version="1.1"
   id="svg1"
   inkscape:version="1.4.2 (ebf0e940d0, 2025-05-08)"
   sodipodi:docname="logo.svg"
   xmlns:inkscape="http://www.inkscape.org/namespaces/inkscape"
   xmlns:sodipodi="http://sodipodi.sourceforge.net/DTD/sodipodi-0.dtd"
   xmlns="http://www.w3.org/2000/svg"
   xmlns:svg="http://www.w3.org/2000/svg">
  <sodipodi:namedview
     id="namedview1"
     pagecolor="#ffffff"
     bordercolor="#000000"
     borderopacity="0.25"
     inkscape:showpageshadow="2"
     inkscape:pageopacity="0.0"
     inkscape:pagecheckerboard="0"
     inkscape:deskcolor="#d1d1d1"
     inkscape:document-units="px"
     showgrid="true"
     inkscape:zoom="0.70710678"
     inkscape:cx="463.86205"
     inkscape:cy="425.67828"
     inkscape:window-width="2048"
     inkscape:window-height="1248"
     inkscape:window-x="0"
     inkscape:window-y="448"
     inkscape:window-maximized="1"
     inkscape:current-layer="layer1"
     showguides="true">
    <inkscape:grid
       id="doc"
       units="mm"
       originx="396.8504"
       originy="0"
       spacingx="5.0000001"
       spacingy="4.9999999"
       empcolor="#0099e5"
       empopacity="0.14901961"
       color="#0099e5"
       opacity="0.10196078"
       empspacing="4"
       enabled="false"
       visible="true"
       dotted="true" />
    <inkscape:grid
       type="axonomgrid"
       id="iso"
       units="px"
       originx="0"
       originy="0"
       spacingx="0.99999998"
       spacingy="8.4666666"
       empcolor="#0099e5"
       empopacity="0.14901961"
       color="#0099e5"
       opacity="0.10196078"
       empspacing="4"
       dotted="false"
       gridanglex="26.565051177078"
       gridanglez="26.565051177078"
       enabled="false"
       visible="true" />
    <inkscape:grid
       id="square"
       units="px"
       originx="0"
       originy="0"
       spacingx="4.2333333"
       spacingy="4.2333333"
       empcolor="#0099e5"
       empopacity="0.15294118"
       color="#0099e5"
       opacity="0.10196078"
       empspacing="4"
       enabled="false"
       visible="true"
       dotted="true"
       snapvisiblegridlinesonly="true" />
    <inkscape:grid
       id="mm"
       units="mm"
       originx="0"
       originy="0"
       spacingx="0.99999999"
       spacingy="0.99999999"
       empcolor="#0099e5"
       empopacity="0.14509804"
       color="#0099e5"
       opacity="0.10196078"
       empspacing="10"
       enabled="false"
       visible="true"
       dotted="true" />
  </sodipodi:namedview>
  <defs
     id="defs1" />
  <g
     inkscape:label="Layer 1"
     inkscape:groupmode="layer"
     id="layer1">
    <path
       id="text1"
       style="font-size:37.0014px;font-family:Nasalization;-inkscape-font-specification:Nasalization;text-align:center;text-anchor:middle;fill:#000000;fill-opacity:1;stroke:#000000;stroke-width:0;stroke-linecap:round;stroke-linejoin:round;stroke-opacity:0"
       d="m 55.141961,95.358003 c -10.301827,0 -16.03117,5.834567 -16.03117,17.765757 0,11.87864 5.676783,17.71291 16.03117,17.71291 h 4.110012 v -6.20209 h -4.110012 c -6.885405,0 -9.829084,-3.41652 -9.829084,-11.51082 0,-8.0943 2.99624,-11.56367 9.829084,-11.56367 h 4.835265 c 6.832844,0 9.776232,3.46937 9.776232,11.56367 0,4.52331 -0.918328,7.61825 -2.945789,9.44958 l -3.763534,-3.76354 v 12.02687 h 12.026866 l -3.763535,-3.76354 c 3.092562,-2.92692 4.700931,-7.57181 4.700931,-13.94937 0,-11.93119 -5.729344,-17.765757 -16.031171,-17.765757 z m 28.067581,0 v 6.202087 H 102.6563 c 3.41642,0 4.94097,2.15527 4.94097,4.67817 0,2.52288 -1.41943,4.94097 -4.94097,4.94097 H 88.833187 c -3.889464,0 -5.571527,1.62906 -5.571527,5.62365 v 14.03379 h 6.202087 v -12.82479 c 0,-0.63073 0.315189,-0.89336 0.893353,-0.89336 h 9.250644 l 8.094496,13.71815 h 6.8855 l -8.25232,-14.19162 c 5.41371,-1.52425 7.51679,-6.25451 7.51679,-10.66958 0,-5.67651 -3.41668,-10.617467 -11.40585,-10.617467 z m 71.744238,1.15688 v 6.569847 h -3.78409 v 5.36085 h 3.78409 v 12.82479 c 0,7.25333 2.4704,9.5663 8.19947,9.5663 h 4.99383 v -5.09879 h -3.83695 c -2.62801,0 -3.73197,-1.0508 -3.73197,-4.15186 v -13.14044 h 7.67389 v -5.36085 h -7.67389 v -6.569847 z m -25.54387,6.569847 c -7.41101,0 -12.03641,4.52023 -12.03641,13.87597 0,9.35574 4.6254,13.87597 12.03641,13.87597 h 5.83432 c 7.35845,0 12.03642,-4.52023 12.03642,-13.87597 0,-9.35574 -4.67797,-13.87597 -12.03642,-13.87597 z m 54.97828,0 c -7.41101,0 -12.0364,4.52023 -12.0364,13.87597 0,9.35574 4.62539,13.87597 12.0364,13.87597 h 5.83359 c 7.35844,0 12.03641,-4.52023 12.03641,-13.87597 0,-9.35574 -4.67797,-13.87597 -12.03641,-13.87597 z m 32.00876,0 c -5.46627,0 -7.51606,2.5231 -7.51606,8.0945 v 19.65744 h 5.57153 v -18.81694 c 0,-2.41777 1.10381,-3.57415 3.57414,-3.57415 h 9.77623 v -5.36085 z m -86.46145,5.36085 h 4.78315 c 4.78298,0 6.93761,2.52324 6.93761,8.51512 0,5.99188 -2.15463,8.46227 -6.93761,8.46227 h -4.78315 c -4.83554,0 -6.93835,-2.47039 -6.93835,-8.46227 0,-5.99188 2.10281,-8.51512 6.93835,-8.51512 z m 54.97827,0 h 4.78242 c 4.78299,0 6.93835,2.52324 6.93835,8.51512 0,5.99188 -2.15536,8.46227 -6.93835,8.46227 h -4.78242 c -4.83555,0 -6.93834,-2.47039 -6.93834,-8.46227 0,-5.99188 2.10279,-8.51512 6.93834,-8.51512 z" />
  </g>
</svg>
